<?xml version="1.0" encoding="utf-8"?><!-- Uploaded to: SVG Repo, www.svgrepo.com, Generator: SVG Repo Mixer Tools -->
<svg width="800px" height="800px" viewBox="0 0 24 24" fill="none" xmlns="http://www.w3.org/2000/svg">
<path d="M16 21H16.2C17.8802 21 18.7202 21 19.362 20.673C19.9265 20.3854 20.3854 19.9265 20.673 19.362C21 18.7202 21 17.8802 21 16.2V7.8C21 6.11984 21 5.27976 20.673 4.63803C20.3854 4.07354 19.9265 3.6146 19.362 3.32698C18.7202 3 17.8802 3 16.2 3H7.8C6.11984 3 5.27976 3 4.63803 3.32698C4.07354 3.6146 3.6146 4.07354 3.32698 4.63803C3 5.27976 3 6.11984 3 7.8V8M11.5 12.5L17 7M17 7H12M17 7V12M6.2 21H8.8C9.9201 21 10.4802 21 10.908 20.782C11.2843 20.5903 11.5903 20.2843 11.782 19.908C12 19.4802 12 18.9201 12 17.8V15.2C12 14.0799 12 13.5198 11.782 13.092C11.5903 12.7157 11.2843 12.4097 10.908 12.218C10.4802 12 9.92011 12 8.8 12H6.2C5.0799 12 4.51984 12 4.09202 12.218C3.71569 12.4097 3.40973 12.7157 3.21799 13.092C3 13.5198 3 14.0799 3 15.2V17.8C3 18.9201 3 19.4802 3.21799 19.908C3.40973 20.2843 3.71569 20.5903 4.09202 20.782C4.51984 21 5.07989 21 6.2 21Z" stroke="#000000" stroke-width="2" stroke-linecap="round" stroke-linejoin="round"/>
</svg>